<svg width="12" height="10" viewBox="0 0 12 10" fill="none" xmlns="http://www.w3.org/2000/svg">
<path d="M11.7625 5.26252L7.2625 9.76252C7.22803 9.79699 7.1871 9.82433 7.14206 9.84299C7.09702 9.86164 7.04875 9.87125 7 9.87125C6.95125 9.87125 6.90298 9.86164 6.85794 9.84299C6.8129 9.82433 6.77197 9.79699 6.7375 9.76252C6.70303 9.72804 6.67568 9.68712 6.65703 9.64208C6.63837 9.59704 6.62877 9.54877 6.62877 9.50002C6.62877 9.45126 6.63837 9.40299 6.65703 9.35795C6.67568 9.31291 6.70303 9.27199 6.7375 9.23752L10.5938 5.37502H0.5C0.400544 5.37502 0.305161 5.33551 0.234835 5.26518C0.164509 5.19485 0.125 5.09947 0.125 5.00002C0.125 4.90056 0.164509 4.80518 0.234835 4.73485C0.305161 4.66452 0.400544 4.62502 0.5 4.62502H10.5938L6.7375 0.762515C6.66788 0.692896 6.62877 0.598472 6.62877 0.500015C6.62877 0.401559 6.66788 0.307135 6.7375 0.237515C6.80712 0.167896 6.90154 0.128784 7 0.128784C7.09846 0.128784 7.19288 0.167896 7.2625 0.237515L11.7625 4.73752C11.798 4.77137 11.8264 4.8121 11.8457 4.85722C11.865 4.90234 11.875 4.95092 11.875 5.00002C11.875 5.04911 11.865 5.09769 11.8457 5.14281C11.8264 5.18793 11.798 5.22866 11.7625 5.26252Z" fill="#EFE7D2"/>
</svg>
