<svg width="18" height="18" viewBox="0 0 18 18" fill="none" xmlns="http://www.w3.org/2000/svg">
<path d="M16.1719 9C16.1719 7.58154 15.7513 6.19493 14.9632 5.01552C14.1751 3.83611 13.055 2.91688 11.7446 2.37405C10.4341 1.83123 8.99205 1.68921 7.60084 1.96593C6.20963 2.24266 4.93173 2.92572 3.92872 3.92872C2.92572 4.93173 2.24266 6.20963 1.96593 7.60084C1.68921 8.99205 1.83123 10.4341 2.37405 11.7446C2.91688 13.055 3.83611 14.1751 5.01552 14.9632C6.19493 15.7513 7.58154 16.1719 9 16.1719C10.9015 16.17 12.7246 15.4138 14.0692 14.0692C15.4138 12.7246 16.17 10.9015 16.1719 9ZM9.42188 15.3141V10.5469H11.25C11.3619 10.5469 11.4692 10.5024 11.5483 10.4233C11.6274 10.3442 11.6719 10.2369 11.6719 10.125C11.6719 10.0131 11.6274 9.90581 11.5483 9.82669C11.4692 9.74758 11.3619 9.70313 11.25 9.70313H9.42188V7.875C9.42372 7.53991 9.55766 7.21906 9.79461 6.98211C10.0316 6.74516 10.3524 6.61122 10.6875 6.60938H11.8125C11.9244 6.60938 12.0317 6.56493 12.1108 6.48581C12.1899 6.4067 12.2344 6.29939 12.2344 6.1875C12.2344 6.07562 12.1899 5.96831 12.1108 5.88919C12.0317 5.81008 11.9244 5.76563 11.8125 5.76563H10.6875C10.1286 5.76748 9.59318 5.99031 9.198 6.3855C8.80281 6.78068 8.57998 7.31613 8.57813 7.875V9.70313H6.75C6.63812 9.70313 6.53081 9.74758 6.45169 9.82669C6.37258 9.90581 6.32813 10.0131 6.32813 10.125C6.32813 10.2369 6.37258 10.3442 6.45169 10.4233C6.53081 10.5024 6.63812 10.5469 6.75 10.5469H8.57813V15.3141C6.94 15.2046 5.40853 14.4628 4.30714 13.2453C3.20574 12.0277 2.62064 10.4298 2.6754 8.78896C2.73016 7.1481 3.42048 5.59274 4.6006 4.45135C5.78071 3.30996 7.35822 2.67189 9 2.67189C10.6418 2.67189 12.2193 3.30996 13.3994 4.45135C14.5795 5.59274 15.2699 7.1481 15.3246 8.78896C15.3794 10.4298 14.7943 12.0277 13.6929 13.2453C12.5915 14.4628 11.06 15.2046 9.42188 15.3141Z" fill="#EFE7D2"/>
</svg>
