<svg width="18" height="18" viewBox="0 0 18 18" fill="none" xmlns="http://www.w3.org/2000/svg">
<path d="M17.2617 4.90075C17.2299 4.82419 17.1763 4.75869 17.1075 4.71242C17.0388 4.66615 16.9579 4.64117 16.875 4.64059H14.6531C14.3785 4.13619 13.9745 3.71401 13.4827 3.41743C12.9909 3.12086 12.4289 2.96059 11.8547 2.95309C10.9918 2.94934 10.1626 3.28756 9.54855 3.89373C8.93448 4.4999 8.58554 5.32464 8.57811 6.18747V6.79919C5.59686 6.08903 3.13592 3.66325 3.1078 3.64216C3.05359 3.58865 2.98591 3.55081 2.91194 3.53266C2.83796 3.51451 2.76045 3.51673 2.68763 3.53908C2.61482 3.56143 2.54941 3.60308 2.49835 3.6596C2.4473 3.71613 2.4125 3.78542 2.39764 3.86013C1.78592 7.207 2.79139 9.44294 3.74061 10.7297C4.24405 11.4186 4.86248 12.0156 5.56874 12.4945C4.47889 13.8164 2.68592 14.5054 2.66483 14.5125C2.60493 14.5345 2.55092 14.5701 2.50702 14.6165C2.46311 14.6628 2.4305 14.7186 2.41171 14.7797C2.39175 14.8392 2.38582 14.9025 2.39435 14.9647C2.40289 15.0269 2.42567 15.0863 2.46092 15.1383C2.53124 15.2437 3.2203 16.1718 5.62499 16.1718C10.5258 16.1718 14.625 12.382 15.0187 7.51638L17.1703 5.35778C17.2313 5.30064 17.2729 5.22587 17.2893 5.14392C17.3057 5.06197 17.296 4.97695 17.2617 4.90075ZM14.3086 7.03122C14.2354 7.10419 14.1927 7.20219 14.1891 7.30544C13.9008 11.8054 10.139 15.3281 5.62499 15.3281C4.64764 15.3281 4.02186 15.1593 3.64921 14.9906C4.44374 14.5898 5.74452 13.8023 6.53905 12.607C6.5707 12.5574 6.592 12.502 6.60167 12.444C6.61134 12.386 6.60917 12.3266 6.5953 12.2695C6.58031 12.211 6.55315 12.1564 6.51559 12.1091C6.47803 12.0619 6.43091 12.0231 6.37733 11.9953C6.36327 11.9953 5.30858 11.4468 4.39452 10.1953C3.30467 8.70466 2.87577 6.88356 3.11483 4.78122C4.14139 5.65309 6.35624 7.29841 8.92967 7.72731C8.99024 7.73882 9.05262 7.73668 9.11225 7.72105C9.17189 7.70542 9.2273 7.67669 9.27444 7.63696C9.32158 7.59722 9.35927 7.54748 9.38477 7.49135C9.41027 7.43522 9.42294 7.37411 9.42186 7.31247V6.18747C9.42743 5.55028 9.68495 4.9412 10.1381 4.49327C10.5914 4.04533 11.2034 3.79496 11.8406 3.79684C12.301 3.80349 12.7499 3.94219 13.1338 4.19646C13.5177 4.45073 13.8205 4.80988 14.0062 5.23122C14.0383 5.30701 14.0922 5.37155 14.1611 5.41663C14.2299 5.4617 14.3107 5.48527 14.393 5.48434H15.8555L14.3086 7.03122Z" fill="#EFE7D2"/>
</svg>
