<svg width="97" height="31" viewBox="0 0 97 31" fill="none" xmlns="http://www.w3.org/2000/svg">
<path d="M8.33268 19.0133L12.4527 21.5L11.3593 16.8133L14.9993 13.66L10.206 13.2533L8.33268 8.83334L6.45935 13.2533L1.66602 13.66L5.30602 16.8133L4.21268 21.5L8.33268 19.0133Z" fill="#EFE7D2"/>
<path d="M28.3327 19.0133L32.4527 21.5L31.3594 16.8133L34.9993 13.66L30.206 13.2533L28.3327 8.83334L26.4593 13.2533L21.666 13.66L25.306 16.8133L24.2127 21.5L28.3327 19.0133Z" fill="#EFE7D2"/>
<path d="M48.3327 19.0133L52.4527 21.5L51.3594 16.8133L54.9993 13.66L50.206 13.2533L48.3327 8.83334L46.4593 13.2533L41.666 13.66L45.306 16.8133L44.2127 21.5L48.3327 19.0133Z" fill="#EFE7D2"/>
<path d="M68.3327 19.0133L72.4527 21.5L71.3594 16.8133L74.9993 13.66L70.206 13.2533L68.3327 8.83334L66.4593 13.2533L61.666 13.66L65.306 16.8133L64.2127 21.5L68.3327 19.0133Z" fill="#EFE7D2"/>
<path d="M88.3327 19.0133L92.4527 21.5L91.3594 16.8133L94.9993 13.66L90.206 13.2533L88.3327 8.83334L86.4593 13.2533L81.666 13.66L85.306 16.8133L84.2127 21.5L88.3327 19.0133Z" fill="#EFE7D2"/>
</svg>
