<svg width="119" height="27" viewBox="0 0 119 27" fill="none" xmlns="http://www.w3.org/2000/svg">
<path d="M11.008 0.0920029C12.672 0.0920029 14.1653 0.412003 15.488 1.052C16.8107 1.67067 17.9307 2.492 18.848 3.516C19.7867 4.51867 20.5013 5.66 20.992 6.94C21.504 8.22 21.76 9.52134 21.76 10.844C21.76 11.804 21.664 12.6893 21.472 13.5C21.28 14.3107 21.0133 15.0573 20.672 15.74C20.3307 16.4227 19.936 17.052 19.488 17.628C19.0613 18.1827 18.592 18.6947 18.08 19.164L19.136 20.348C19.968 21.116 20.8747 21.7987 21.856 22.396C22.8373 23.0147 23.8293 23.5267 24.832 23.932C25.8347 24.3587 26.8267 24.6787 27.808 24.892C28.7893 25.1053 29.6853 25.212 30.496 25.212C31.2 25.212 31.9467 25.148 32.736 25.02C33.5467 24.892 34.3573 24.7 35.168 24.444C36 24.188 36.8213 23.8467 37.632 23.42C38.4427 23.0147 39.2107 22.524 39.936 21.948L40.128 22.236C39.424 23.004 38.6347 23.676 37.76 24.252C36.8853 24.8493 35.968 25.34 35.008 25.724C34.048 26.108 33.056 26.396 32.032 26.588C31.0293 26.8013 30.0373 26.908 29.056 26.908C28.0747 26.908 27.0933 26.8227 26.112 26.652C25.1307 26.4813 24.1493 26.1933 23.168 25.788C22.1867 25.3827 21.2053 24.828 20.224 24.124C19.2427 23.4413 18.2613 22.5773 17.28 21.532L16.192 20.38C15.8293 20.6147 15.4133 20.828 14.944 21.02C14.496 21.1907 14.016 21.34 13.504 21.468C12.992 21.596 12.4693 21.692 11.936 21.756C11.4027 21.82 10.9013 21.852 10.432 21.852C8.93867 21.852 7.552 21.5533 6.272 20.956C5.01333 20.3373 3.91467 19.5373 2.976 18.556C2.05867 17.5533 1.33333 16.412 0.8 15.132C0.266667 13.852 0 12.54 0 11.196C0 9.83067 0.245333 8.48667 0.736 7.164C1.22667 5.82 1.94133 4.62534 2.88 3.58C3.84 2.53467 5.00267 1.692 6.368 1.052C7.73333 0.412003 9.28 0.0920029 11.008 0.0920029ZM10.976 20.732C12.4053 20.668 13.664 20.348 14.752 19.772C15.84 19.1747 16.736 18.428 17.44 17.532C18.1653 16.6147 18.7093 15.612 19.072 14.524C19.4347 13.436 19.616 12.3693 19.616 11.324C19.616 10.1507 19.392 8.96667 18.944 7.772C18.5173 6.556 17.9093 5.468 17.12 4.508C16.352 3.52667 15.4133 2.73734 14.304 2.14C13.1947 1.52134 11.968 1.212 10.624 1.212C9.30133 1.212 8.10667 1.51067 7.04 2.108C5.99467 2.684 5.10933 3.43067 4.384 4.348C3.65867 5.26534 3.104 6.28934 2.72 7.42C2.336 8.52934 2.144 9.628 2.144 10.716C2.144 11.8893 2.35733 13.0733 2.784 14.268C3.232 15.4627 3.85067 16.54 4.64 17.5C5.42933 18.46 6.35733 19.2387 7.424 19.836C8.512 20.4333 9.696 20.732 10.976 20.732Z" fill="#EFE7D2"/>
<path d="M24.9755 0.412003H29.5515V0.732002H29.3915C29.2422 0.732002 29.1035 0.796002 28.9755 0.924002C28.8475 1.03067 28.7408 1.16934 28.6555 1.34C28.5702 1.48934 28.4955 1.67067 28.4315 1.884C28.3888 2.076 28.3675 2.24667 28.3675 2.396V19.452C28.3675 19.6227 28.3888 19.8147 28.4315 20.028C28.4742 20.22 28.5382 20.4013 28.6235 20.572C28.7302 20.7427 28.8368 20.892 28.9435 21.02C29.0715 21.148 29.2208 21.212 29.3915 21.212H29.5515V21.532H24.9755V21.212H25.1355C25.3062 21.212 25.4555 21.1587 25.5835 21.052C25.7115 20.924 25.8182 20.7747 25.9035 20.604C26.0102 20.412 26.0848 20.22 26.1275 20.028C26.1702 19.8147 26.1915 19.6227 26.1915 19.452V2.396C26.1915 2.24667 26.1702 2.076 26.1275 1.884C26.0848 1.692 26.0102 1.51067 25.9035 1.34C25.8182 1.16934 25.7115 1.03067 25.5835 0.924002C25.4555 0.796002 25.3062 0.732002 25.1355 0.732002H24.9755V0.412003Z" fill="#EFE7D2"/>
<path d="M40.7248 21.212H40.8848V21.532H36.3408V21.212H36.5008C36.6714 21.212 36.8208 21.148 36.9488 21.02C37.0768 20.892 37.1834 20.7427 37.2688 20.572C37.3754 20.4013 37.4501 20.22 37.4928 20.028C37.5354 19.8147 37.5568 19.6227 37.5568 19.452V1.596H33.8447C33.5034 1.596 33.2048 1.67067 32.9487 1.82C32.6927 1.96934 32.4794 2.16134 32.3088 2.396C32.1381 2.60934 32.0101 2.85467 31.9247 3.132C31.8394 3.388 31.7968 3.644 31.7968 3.9H31.4767V0.412003H45.8448V3.9H45.5247C45.5247 3.644 45.4821 3.388 45.3968 3.132C45.3114 2.85467 45.1834 2.60934 45.0128 2.396C44.8421 2.16134 44.6288 1.96934 44.3728 1.82C44.1168 1.67067 43.8181 1.596 43.4768 1.596H39.7008V19.452C39.7008 19.6227 39.7221 19.8147 39.7648 20.028C39.8074 20.22 39.8714 20.4013 39.9568 20.572C40.0634 20.7427 40.1701 20.892 40.2768 21.02C40.4048 21.148 40.5541 21.212 40.7248 21.212Z" fill="#EFE7D2"/>
<path d="M57.1115 1.244C55.5328 1.244 54.1568 1.532 52.9835 2.108C51.8315 2.66267 50.8715 3.39867 50.1035 4.316C49.3355 5.212 48.7595 6.22534 48.3755 7.356C48.0128 8.48667 47.8315 9.60667 47.8315 10.716C47.8315 11.9747 48.0768 13.212 48.5675 14.428C49.0582 15.6227 49.7302 16.6893 50.5835 17.628C51.4582 18.5453 52.4715 19.292 53.6235 19.868C54.7755 20.4227 56.0235 20.7 57.3675 20.7C57.7515 20.7 58.1995 20.6573 58.7115 20.572C59.2448 20.4867 59.7675 20.3267 60.2795 20.092C60.7915 19.836 61.2608 19.484 61.6875 19.036C62.1355 18.588 62.4768 18.0013 62.7115 17.276H63.0315V20.828C62.7115 20.828 62.3702 20.8707 62.0075 20.956C61.6662 21.0413 61.2822 21.1373 60.8555 21.244C60.3008 21.3933 59.6822 21.532 58.9995 21.66C58.3382 21.788 57.6342 21.852 56.8875 21.852C55.0315 21.852 53.3995 21.532 51.9915 20.892C50.5835 20.252 49.4102 19.42 48.4715 18.396C47.5328 17.372 46.8288 16.22 46.3595 14.94C45.8902 13.6387 45.6555 12.3267 45.6555 11.004C45.6555 9.68134 45.8902 8.36934 46.3595 7.068C46.8288 5.76667 47.5435 4.604 48.5035 3.58C49.4635 2.53467 50.6688 1.692 52.1195 1.052C53.5702 0.412003 55.2768 0.0920029 57.2395 0.0920029C57.9435 0.0920029 58.5728 0.156003 59.1275 0.284002C59.7035 0.412002 60.2155 0.540002 60.6635 0.668003C60.9835 0.77467 61.2715 0.860003 61.5275 0.924002C61.8048 0.966669 62.0715 0.988003 62.3275 0.988003V4.54H62.0075C61.8795 3.87867 61.6448 3.33467 61.3035 2.908C60.9622 2.46 60.5568 2.11867 60.0875 1.884C59.6395 1.64934 59.1488 1.48934 58.6155 1.404C58.1035 1.29734 57.6022 1.244 57.1115 1.244Z" fill="#EFE7D2"/>
<path d="M78.553 21.212H78.713C78.8623 21.212 79.001 21.1587 79.129 21.052C79.257 20.924 79.3637 20.7747 79.449 20.604C79.5557 20.412 79.6303 20.22 79.673 20.028C79.7157 19.8147 79.737 19.6227 79.737 19.452V10.748H69.497V19.452C69.497 19.6227 69.5183 19.8147 69.561 20.028C69.6037 20.22 69.6677 20.4013 69.753 20.572C69.8383 20.7427 69.9343 20.892 70.041 21.02C70.169 21.148 70.3183 21.212 70.489 21.212H70.649V21.532H66.169V21.212H66.329C66.4783 21.212 66.617 21.1587 66.745 21.052C66.873 20.924 66.9797 20.7747 67.065 20.604C67.1717 20.412 67.2463 20.22 67.289 20.028C67.3317 19.8147 67.353 19.6227 67.353 19.452V2.396C67.353 2.24667 67.3317 2.076 67.289 1.884C67.2463 1.692 67.1823 1.51067 67.097 1.34C67.0117 1.16934 66.905 1.03067 66.777 0.924002C66.649 0.796002 66.4997 0.732002 66.329 0.732002H66.169V0.412003H70.649V0.732002H70.489C70.3183 0.732002 70.169 0.796002 70.041 0.924002C69.913 1.03067 69.8063 1.16934 69.721 1.34C69.657 1.51067 69.6037 1.692 69.561 1.884C69.5183 2.076 69.497 2.24667 69.497 2.396V9.628H79.737V2.396C79.737 2.24667 79.7157 2.076 79.673 1.884C79.6303 1.692 79.5663 1.51067 79.481 1.34C79.3957 1.16934 79.289 1.03067 79.161 0.924002C79.033 0.796002 78.8837 0.732002 78.713 0.732002H78.553V0.412003H83.033V0.732002H82.873C82.7023 0.732002 82.553 0.796002 82.425 0.924002C82.297 1.03067 82.1903 1.16934 82.105 1.34C82.041 1.51067 81.9877 1.692 81.945 1.884C81.9023 2.076 81.881 2.24667 81.881 2.396V19.452C81.881 19.6227 81.9023 19.8147 81.945 20.028C82.009 20.22 82.0837 20.4013 82.169 20.572C82.2543 20.7427 82.3503 20.892 82.457 21.02C82.585 21.148 82.7237 21.212 82.873 21.212H83.033V21.532H78.553V21.212Z" fill="#EFE7D2"/>
<path d="M85.6913 21.212H85.8512C86.0219 21.212 86.1712 21.1587 86.2992 21.052C86.4272 20.924 86.5339 20.7747 86.6192 20.604C86.7259 20.4333 86.8006 20.252 86.8433 20.06C86.9073 19.868 86.9393 19.6867 86.9393 19.516V2.396C86.9393 2.24667 86.9073 2.076 86.8433 1.884C86.8006 1.692 86.7259 1.51067 86.6192 1.34C86.5339 1.16934 86.4272 1.03067 86.2992 0.924002C86.1712 0.796002 86.0219 0.732002 85.8512 0.732002H85.6913V0.412003H98.0113V3.388H97.6913C97.6486 2.89734 97.4566 2.47067 97.1152 2.108C96.7739 1.724 96.2406 1.532 95.5153 1.532H89.0833V9.628H94.3952C94.8859 9.628 95.2913 9.47867 95.6113 9.18C95.9526 8.88134 96.1233 8.52934 96.1233 8.124H96.4433V12.124H96.1233C96.1233 11.74 95.9632 11.4093 95.6432 11.132C95.3232 10.8547 94.9072 10.716 94.3952 10.716H89.0833V20.412H96.0912C96.4966 20.412 96.8486 20.316 97.1473 20.124C97.4459 19.932 97.6913 19.708 97.8833 19.452C98.0966 19.1747 98.2459 18.8867 98.3313 18.588C98.4379 18.268 98.4912 18.0013 98.4912 17.788H98.8112V21.532H85.6913V21.212Z" fill="#EFE7D2"/>
<path d="M104.583 21.212H104.743V21.532H101.19V21.212H101.351C101.5 21.212 101.639 21.148 101.767 21.02C101.916 20.892 102.033 20.7427 102.118 20.572C102.204 20.4013 102.268 20.22 102.311 20.028C102.375 19.8147 102.407 19.6227 102.407 19.452V2.396C102.407 2.24667 102.385 2.076 102.342 1.884C102.321 1.692 102.268 1.51067 102.183 1.34C102.097 1.16934 101.98 1.03067 101.83 0.924002C101.681 0.796002 101.5 0.732002 101.286 0.732002H101.127V0.412003H104.359L115.975 18.716V2.396C115.975 2.24667 115.943 2.076 115.879 1.884C115.836 1.692 115.761 1.51067 115.655 1.34C115.569 1.16934 115.463 1.03067 115.335 0.924002C115.207 0.796002 115.057 0.732002 114.887 0.732002H114.727V0.412003H118.311V0.732002H118.15C117.98 0.732002 117.83 0.796002 117.702 0.924002C117.575 1.03067 117.457 1.16934 117.351 1.34C117.265 1.51067 117.201 1.692 117.159 1.884C117.116 2.076 117.094 2.24667 117.094 2.396V21.532H115.111L103.527 3.164V19.452C103.527 19.6227 103.548 19.8147 103.59 20.028C103.633 20.22 103.697 20.4013 103.783 20.572C103.889 20.7427 104.007 20.892 104.134 21.02C104.262 21.148 104.412 21.212 104.583 21.212Z" fill="#EFE7D2"/>
</svg>
